<?xml version="1.0" encoding="UTF-8"?>
<svg width="1024px" height="1024px" viewBox="0 0 1024 1024" version="1.1" xmlns="http://www.w3.org/2000/svg" xmlns:xlink="http://www.w3.org/1999/xlink">
    <title>Desktop</title>
    <g id="Desktop" stroke="none" stroke-width="1" fill="none" fill-rule="evenodd">
        <g id="Group" transform="translate(341.000000, 431.000000)" stroke="#000000" stroke-width="40">
            <line x1="0" y1="161" x2="342" y2="162" id="Line"></line>
            <line x1="0" y1="0" x2="342" y2="1" id="Line-Copy"></line>
        </g>
        <g id="Group" transform="translate(512.000000, 512.000000) rotate(90.000000) translate(-512.000000, -512.000000) translate(341.000000, 430.000000)" stroke="#000000" stroke-width="40">
            <line x1="1.23216107e-13" y1="163" x2="342" y2="163" id="Line"></line>
            <line x1="2.93746364e-13" y1="1" x2="342" y2="1" id="Line-Copy"></line>
        </g>
        <path d="M683,432 C732.705627,432 773,391.705627 773,342 C773,292.294373 732.705627,252 683,252 C633.294373,252 593,292.294373 593,342" id="Oval" stroke="#000000" stroke-width="40"></path>
        <path d="M593,683 C593,732.705627 633.294373,773 683,773 C732.705627,773 773,732.705627 773,683 C773,633.294373 732.705627,593 683,593" id="Oval" stroke="#000000" stroke-width="40"></path>
        <path d="M341,593 C291.294373,593 251,633.294373 251,683 C251,732.705627 291.294373,773 341,773 C390.705627,773 431,732.705627 431,683" id="Oval" stroke="#000000" stroke-width="40"></path>
        <path d="M431,341 C431,291.294373 390.705627,251 341,251 C291.294373,251 251,291.294373 251,341 C251,390.705627 291.294373,431 341,431" id="Oval-Copy" stroke="#000000" stroke-width="40"></path>
    </g>
</svg>