<?xml version="1.0" encoding="utf-8"?>
<svg viewBox="0 0 960 960" width="960" height="960" xmlns="http://www.w3.org/2000/svg">
  <path stroke-width="40px" stroke-linecap="butt" fill="none" stroke="black" d="M 512,64 a 192,192 0 0,1 192,192 a 192,192 0 0,1 -192,192 a 256,256 0 0,0 256,-256 a 320,320 0 0,1 -320,320 a 192,192 0 0,1 -192,-192 a 128,128 0 0,0 128,128 a 64,64 0 0,0 64,-64 a 64,64 0 0,1 64,-64 a 64,64 0 0,0 64,-64 a 64,64 0 0,0 -64,-64 a 64,64 0 0,0 -64,64 a 64,64 0 0,1 -64,64 a 128,128 0 0,1 -128,-128" />
</svg>
